<svg width="423" height="65" viewBox="0 0 423 65" fill="none" xmlns="http://www.w3.org/2000/svg">
    <path d="M290.258 41.8727C401.775 40.0594 425.121 45.6504 422.855 48.6726C408.338 60.4589 292.142 58.8724 235.859 56.6059C220.446 61.1391 159.172 62.2724 130.461 62.2724C109.608 66.8056 90.7955 62.6502 83.9957 60.0058C69.4894 64.539 42.441 61.1391 30.7302 58.8725C-21.8553 61.5924 3.53086 33.9397 29.5969 40.7396C30.5035 16.2601 61.7072 24.4955 77.1958 31.6731C78.1024 19.8867 99.4842 16.9401 110.062 16.9401C113.688 -12.9792 150.861 3.34046 149.727 15.8068C169.674 11.2735 189.771 23.7399 197.326 30.5397C223.619 25.0998 233.214 30.5397 234.726 33.9396C267.365 33.9396 285.347 39.2283 290.258 41.8727Z"
          fill="white" fill-opacity="0.54"/>
</svg>
