<svg width="368" height="111" viewBox="0 0 368 111" fill="none" xmlns="http://www.w3.org/2000/svg">
    <path d="M19.0366 93.9513C17.5199 93.9513 14.6129 97.7431 13.349 99.639C7.28241 96.6057 -0.88499 102.055 0.0778917 103.431C7.66134 114.805 115.726 109.75 166.914 103.43C192.698 114.047 214.311 106.59 221.894 101.534C229.478 107.601 367.876 103.43 367.876 97.7427C369.772 93.9509 349.549 91.4231 333.75 92.0551C347.401 84.4716 325.535 80.0479 312.896 78.784C323.513 69.6838 299.625 67.4088 286.354 67.4088C286.354 56.7919 274.979 57.9295 269.291 59.8253C263.224 40.1083 246.541 45.2903 238.957 50.3459C235.924 48.8292 232.637 49.7142 231.374 50.3463C227.582 -31.1763 153.643 2.94944 153.643 37.0755C138.476 35.5588 133.42 42.7631 132.789 46.5549C108.521 40.4881 103.719 56.666 104.351 65.5133C78.5668 57.9299 59.4817 69.937 53.1622 76.8885C12.2114 76.8885 13.349 88.2637 19.0366 93.9513Z"
          fill="white" fill-opacity="0.54"/>
</svg>
