<svg viewBox="0 0 374 397" fill="none" xmlns="http://www.w3.org/2000/svg">
    <path fill-rule="evenodd" clip-rule="evenodd"
          d="M30.0613 28.3202L0.500015 0.200989V41V336.5C0.500015 336.872 0.49965 337.248 0.499282 337.626C0.496228 340.771 0.493011 344.085 0.697788 346.785C0.892288 349.349 1.42417 355.311 5.43339 360.615C10.2343 366.966 16.8562 368.568 20.4759 369.083C23.4587 369.508 26.9137 369.504 29.4074 369.5H29.4081H29.4275C29.6246 369.5 29.8157 369.5 30 369.5H30.0662H30.1322H30.1981H30.2639H30.3295H30.395H30.4604H30.5256H30.5908H30.6558H30.7207H30.7854H30.85H30.9145H30.9789H31.0431H31.1072H31.1712H31.2351H31.2988H31.3624H31.4259H31.4893H31.5525H31.6156H31.6786H31.7414H31.8042H31.8668H31.9292H31.9916H32.0538H32.1159H32.1779H32.2398H32.3015H32.3631H32.4246H32.4859H32.5472H32.6083H32.6693H32.7301H32.7908H32.8515H32.9119H32.9723H33.0326H33.0927H33.1527H33.2125H33.2723H33.3319H33.3914H33.4508H33.5101H33.5692H33.6282H33.6871H33.7459H33.8045H33.863H33.9214H33.9797H34.0379H34.0959H34.1538H34.2116H34.2693H34.3269H34.3843H34.4416H34.4988H34.5559H34.6128H34.6696H34.7263H34.7829H34.8394H34.8957H34.952H35.0081H35.0496C35.4525 370.589 35.9085 371.7 36.425 372.822C38.9506 378.305 43.1142 384.426 49.8874 389.143C56.7898 393.949 65.2678 396.5 75 396.5H277C296.561 396.5 311.866 396.453 323.534 395.826C334.71 395.226 344.973 394.033 353.104 390.456C357.558 388.497 361.772 385.668 365.207 381.564C368.625 377.479 370.549 372.993 371.663 368.76C373.515 361.728 373.507 353.355 373.501 346.237C373.5 345.82 373.5 345.408 373.5 345V258.5V258.05V258.05C373.5 242.356 373.5 228.826 372.049 218.253C370.549 207.326 367.077 195.906 357.118 187.689C347.857 180.048 335.849 177.68 324.117 176.597C312.218 175.499 296.79 175.5 277.903 175.5H277.902H277C254.875 175.5 237.987 175.497 224.867 175.034C211.492 174.562 203.495 173.636 198.598 172.302C196.696 171.784 195.719 171.332 195.272 171.071C195.045 170.395 194.5 168.184 194.5 162.5V41V0.200989L164.939 28.3202L130.436 61.1401C116.802 58.6612 106.065 57.25 95.5158 57.25C85.2413 57.25 75.6796 58.5858 64.3363 60.9233L30.0613 28.3202ZM37.154 331.763C36.6627 332.684 36.2188 333.599 35.8175 334.5H35.7811H35.7266H35.6721H35.6174H35.5626H35.5077H35.5V81.799L46.9388 92.6797L53.7389 99.1481L62.8893 97.0623C77.9392 93.6317 86.6313 92.25 95.5158 92.25C104.596 92.25 114.725 93.691 132.66 97.1783L141.521 98.9012L148.061 92.6797L159.5 81.799V162.5C159.5 170.551 160.126 180.359 165.131 188.945C170.753 198.591 179.812 203.461 189.402 206.073C198.505 208.552 210.008 209.532 223.633 210.013C237.442 210.5 254.943 210.5 276.662 210.5H276.662H277C297.008 210.5 310.807 210.518 320.901 211.449C331.352 212.414 334.181 214.14 334.843 214.686L334.847 214.689C334.978 214.797 335.277 215.044 335.709 216.028C336.231 217.216 336.867 219.322 337.374 223.013C338.438 230.761 338.5 241.636 338.5 258.5V345C338.5 352.793 338.396 356.566 338.038 358.779C335.763 359.505 331.062 360.371 321.657 360.877C311.123 361.443 296.848 361.5 277 361.5H75C71.5629 361.5 70.2554 360.676 69.8873 360.42C69.39 360.074 68.7982 359.445 68.2145 358.178C67.6007 356.846 67.2228 355.276 67.0323 353.87C66.9431 353.211 66.9097 352.699 66.8977 352.416C66.8956 352.367 66.8942 352.326 66.8933 352.294C66.9058 352.132 66.9401 351.782 67.0233 351.314C67.2052 350.291 67.5379 349.168 68.0346 348.237C68.4832 347.396 68.9442 346.919 69.4696 346.591C69.9385 346.298 71.4375 345.5 75 345.5H106.326H118.425H118.824H119.224H119.625H120.027H120.431H120.836H121.241H121.648H122.056H122.466H122.876H123.287H123.7H124.113H124.528H124.944H125.361H125.778H126.197H126.617H127.038H127.46H127.883H128.307H128.732H129.158H129.585H130.013H130.442H130.872H131.303H131.735H132.167H132.601H133.036H133.471H133.908H134.345H134.783H135.222H135.663H136.103H136.545H136.988H137.431H137.876H138.321H138.767H139.213H139.661H140.109H140.559H141.459H141.911H142.363H142.816H143.27H143.725H144.18H144.636H145.093H145.55H146.009H146.467H146.927H147.387H147.848H148.31H148.772H149.235H149.699H150.163H150.628H151.093H151.559H152.026H152.493H152.961H153.43H153.899H154.368H154.839H155.309H155.781H156.252H156.725H157.198H157.671H158.145H158.619H159.094H159.57H160.046H160.522H160.999H161.476H161.954H162.432H162.911H163.39H163.869H164.349H164.829H165.31H165.791H166.273H166.754H167.237H167.719H168.202H168.685H169.169H169.653H170.137H170.622H171.106H171.592H172.077H172.563H173.049H173.535H174.022H174.508H174.995H175.483H175.97H176.458H176.946H177.434H177.922H178.411H178.9H179.389H179.878H180.367H180.856H181.346H181.835H182.325H182.815H183.305H183.796H184.286H184.776H185.267H185.757H186.248H186.738H187.229H187.72H188.211H188.702H189.193H189.684H190.174H190.665H191.156H191.647H192.138H192.629H193.12H193.611H194.101H194.592H195.083H195.573H196.064H196.554H197.044H197.535H198.025H198.515H199.004H199.494H199.984H200.473H200.962H201.452H201.941H203.894H204.382H204.87H205.358H205.845H206.332H206.819H207.306H207.792H208.278H208.764H209.249H209.734H210.219H210.704H211.188H211.672H212.156H212.639H213.122H213.605H214.087H214.569H215.05H215.532H216.012H216.493H216.973H217.452H217.931H218.41H218.888H219.366H219.843H220.32H220.797H221.273H221.748H222.223H222.698H223.172H223.645H224.118H224.591H225.063H225.534H226.005H226.475H226.945H227.414H227.883H228.351H228.818H229.285H229.751H230.217H230.682H231.146H231.61H232.073H232.535H232.997H233.458H233.918H234.378H234.837H235.295H235.753H236.21H236.666H237.121H237.576H238.03H238.483H238.936H239.388H239.838H240.289H240.738H241.186H241.634H243.417H243.861H244.303H244.745H245.186H245.627H246.066H246.504H246.942H247.378H247.814H248.249H248.683H249.116H249.548H249.979H250.409H250.838H251.266H251.693H252.119H252.545H252.969H253.392H253.814H254.235H254.655H255.074H255.492H255.909H256.325H256.74H257.154H257.567H257.978H258.389H258.798H259.206H259.614H260.02H260.424H260.828H261.231H261.632H262.033H262.432H262.83H263.226H263.622H264.016H264.409H264.801H265.192H265.581H265.969H266.356H266.742H267.126H267.51H267.891H268.272H268.651H269.029H269.406H269.781H270.155H270.528H270.899H271.269H271.638H272.005H272.371H272.736H273.099H273.461H273.821H274.18H274.538H274.894H275.248H275.602H275.953H276.304H276.653H276.986C276.815 341.484 274.528 314.517 243.988 310.5H243.861H243.417H242.973H242.527H242.081H241.634H241.186H240.738H240.289H239.838H239.388H238.936H238.483H238.03H237.576H237.121H236.666H236.21H235.753H235.295H234.837H234.378H233.918H233.458H232.997H232.535H232.073H231.61H231.146H230.682H230.217H229.751H229.285H228.818H228.351H227.883H227.414H226.945H226.475H226.005H225.534H225.063H224.591H224.118H223.645H223.172H222.698H222.223H221.748H221.273H220.797H220.32H219.843H219.366H218.888H218.41H217.931H217.452H216.973H216.493H216.012H215.532H215.05H214.569H214.087H213.605H213.122H212.639H212.156H211.672H211.188H210.704H210.219H209.734H209.249H208.764H208.278H207.792H207.306H206.819H206.332H205.845H205.358H204.87H204.382H203.894H201.941H201.452H200.962H200.473H199.984H199.494H199.004H198.515H198.025H197.535H197.044H196.554H196.064H195.573H195.083H194.592H194.101H193.611H193.12H192.629H192.138H191.647H191.156H190.665H190.174H189.684H189.193H188.702H188.211H187.72H187.229H186.738H186.248H185.757H185.267H184.776H184.286H183.796H183.305H182.815H182.325H181.835H181.346H180.856H180.367H179.878H179.389H178.9H178.411H177.922H177.434H176.946H176.458H175.97H175.483H174.995H174.508H174.022H173.535H173.049H172.563H172.077H171.592H171.106H170.622H170.137H169.653H169.169H168.685H168.202H167.719H167.237H166.754H166.273H165.791H165.31H164.829H164.349H163.869H163.39H162.911H162.432H161.954H161.476H160.999H75C65.7593 310.5 57.6558 312.702 50.923 316.909C44.2465 321.081 39.9063 326.604 37.154 331.763ZM194.951 170.833C194.961 170.83 195.03 170.875 195.124 170.979C194.987 170.889 194.94 170.836 194.951 170.833Z"
          fill="currentColor"/>
</svg>
