<svg viewBox="0 0 1920 388" fill="none" xmlns="http://www.w3.org/2000/svg">
    <path d="M287.735 186.35L0 129L0 388L1920 388V196.525L1742.98 297.813H1650L1577.33 227.05L1410.67 179.875L1148 292.725L1016 314.925C1016 314.925 859.628 328.338 810 321.4C760.372 314.463 715.333 228.9 715.333 228.9C715.333 228.9 417.333 304.75 378.564 297.813C339.794 290.875 287.735 186.35 287.735 186.35Z"
          fill="#0D1524"/>
    <path d="M1100.31 324.706C1094.63 327.3 1085.28 325.787 1081.32 324.706L1084.87 293.21C1078.85 292.592 1057.67 293.21 1056.15 287.034C1053.84 277.616 1078.38 147 1094.9 147C1111.42 147 1132.58 279.006 1131.5 287.034C1130.63 293.457 1109.62 293.827 1099.23 293.21L1100.31 324.706Z"
          fill="#0D1524"/>
    <path d="M604.309 270.706C598.627 273.3 589.281 271.787 585.319 270.706L588.87 239.21C582.848 238.592 561.672 239.21 560.153 233.034C557.836 223.616 582.385 93 598.905 93C615.425 93 636.577 225.006 635.496 233.034C634.632 239.457 613.624 239.827 603.228 239.21L604.309 270.706Z"
          fill="#0D1524"/>
    <path d="M141.309 177.706C135.627 180.3 126.281 178.787 122.319 177.706L125.87 146.21C119.848 145.592 98.6716 146.21 97.1527 140.034C94.8364 130.616 119.385 0 135.905 0C152.425 0 173.577 132.006 172.496 140.034C171.632 146.457 150.624 146.827 140.228 146.21L141.309 177.706Z"
          fill="#0D1524"/>
    <path d="M1181.31 297.706C1175.63 300.3 1166.28 298.787 1162.32 297.706L1165.87 266.21C1159.85 265.592 1138.67 266.21 1137.15 260.034C1134.84 250.616 1159.38 120 1175.9 120C1192.42 120 1213.58 252.006 1212.5 260.034C1211.63 266.457 1190.62 266.827 1180.23 266.21L1181.31 297.706Z"
          fill="#0D1524"/>
    <path d="M1262.31 270.706C1256.63 273.3 1247.28 271.787 1243.32 270.706L1246.87 239.21C1240.85 238.592 1219.67 239.21 1218.15 233.034C1215.84 223.616 1240.38 93 1256.9 93C1273.42 93 1294.58 225.006 1293.5 233.034C1292.63 239.457 1271.62 239.827 1261.23 239.21L1262.31 270.706Z"
          fill="#0D1524"/>
</svg>
