<svg viewBox="0 0 1920 340" fill="none" xmlns="http://www.w3.org/2000/svg">
    <path d="M321.665 115.723L0 139.631L0 340L1920 340V177.2L1832.76 139.631L1651.61 139.631L1398.54 81.0001L1219.79 211.354L1016.67 251.2L779.584 155.569L658.647 81.0001L480.833 155.569L377.607 115.723L321.665 115.723Z"
          fill="#485C80"/>
    <path d="M368.077 129.606C364.477 131.25 358.555 130.291 356.044 129.606L358.294 109.648C354.478 109.257 341.059 109.648 340.097 105.735C338.629 99.7672 354.185 17 364.653 17C375.121 17 388.524 100.648 387.839 105.735C387.292 109.805 373.98 110.04 367.392 109.648L368.077 129.606Z"
          fill="#485C80"/>
    <path d="M416.236 134.042C412.636 135.686 406.713 134.727 404.202 134.042L406.452 114.084C402.637 113.693 389.218 114.084 388.255 110.171C386.788 104.203 402.343 21.4357 412.811 21.4357C423.28 21.4357 436.683 105.083 435.998 110.171C435.45 114.241 422.138 114.475 415.551 114.084L416.236 134.042Z"
          fill="#485C80"/>
    <path d="M784.077 157.606C780.477 159.25 774.555 158.291 772.044 157.606L774.294 137.648C770.478 137.257 757.059 137.648 756.097 133.735C754.629 127.767 770.185 45 780.653 45C791.121 45 804.524 128.648 803.839 133.735C803.292 137.805 789.98 138.04 783.392 137.648L784.077 157.606Z"
          fill="#485C80"/>
    <path d="M815.127 169.646C811.526 171.29 805.604 170.331 803.093 169.646L805.343 149.688C801.528 149.297 788.109 149.688 787.146 145.775C785.679 139.807 801.234 57.0397 811.702 57.0397C822.171 57.0397 835.574 140.687 834.889 145.775C834.341 149.845 821.029 150.079 814.442 149.688L815.127 169.646Z"
          fill="#485C80"/>
    <path d="M1511.08 112.606C1507.48 114.25 1501.55 113.291 1499.04 112.606L1501.29 92.6484C1497.48 92.2571 1484.06 92.6484 1483.1 88.7351C1481.63 82.7672 1497.18 0 1507.65 0C1518.12 0 1531.52 83.6477 1530.84 88.7351C1530.29 92.805 1516.98 93.0398 1510.39 92.6484L1511.08 112.606Z"
          fill="#485C80"/>
    <path d="M1551.08 119.606C1547.48 121.25 1541.55 120.291 1539.04 119.606L1541.29 99.6484C1537.48 99.2571 1524.06 99.6484 1523.1 95.7351C1521.63 89.7672 1537.18 7 1547.65 7C1558.12 7 1571.52 90.6477 1570.84 95.7351C1570.29 99.805 1556.98 100.04 1550.39 99.6484L1551.08 119.606Z"
          fill="#485C80"/>
</svg>
